<?xml version="1.0" standalone="no"?>
<!DOCTYPE svg PUBLIC "-//W3C//DTD SVG 20010904//EN"
 "http://www.w3.org/TR/2001/REC-SVG-20010904/DTD/svg10.dtd">
<svg version="1.0" xmlns="http://www.w3.org/2000/svg"
 width="300.000000pt" height="300.000000pt" viewBox="0 0 300.000000 300.000000"
 preserveAspectRatio="xMidYMid meet">
<metadata>
Created by potrace 1.10, written by Peter Selinger 2001-2011
</metadata>
<g transform="translate(0.000000,300.000000) scale(0.100000,-0.100000)"
fill="#000000" stroke="none">
<path d="M1337 2740 c-343 -62 -607 -297 -702 -627 -48 -165 -44 -338 12 -518
90 -286 313 -668 685 -1170 121 -164 144 -185 185 -171 34 12 402 527 553 776
286 471 371 790 285 1083 -86 297 -303 514 -602 603 -72 21 -113 27 -228 29
-77 2 -162 0 -188 -5z m317 -124 c285 -55 515 -270 590 -551 26 -98 31 -237
12 -333 -57 -282 -267 -664 -640 -1166 -115 -155 -118 -158 -136 -140 -30 32
-241 330 -353 500 -234 355 -362 622 -398 828 -14 82 -7 225 16 311 8 33 35
101 59 150 102 208 315 366 544 405 78 13 226 11 306 -4z"/>
<path d="M1375 2336 c-258 -85 -391 -342 -306 -589 25 -71 52 -113 111 -173
173 -175 455 -179 634 -8 233 224 171 603 -121 741 -72 35 -86 38 -178 40 -63
2 -115 -2 -140 -11z m266 -134 c73 -36 125 -87 160 -158 27 -53 32 -77 33
-137 0 -45 -6 -91 -18 -125 -24 -70 -100 -153 -174 -189 -49 -24 -69 -28 -142
-28 -73 0 -93 4 -142 28 -74 36 -150 119 -174 189 -28 80 -24 180 10 254 34
73 108 146 179 174 72 28 203 24 268 -8z"/>
</g>
</svg>
