<?xml version="1.0" standalone="no"?>
<!DOCTYPE svg PUBLIC "-//W3C//DTD SVG 20010904//EN"
 "http://www.w3.org/TR/2001/REC-SVG-20010904/DTD/svg10.dtd">
<svg version="1.0" xmlns="http://www.w3.org/2000/svg"
 width="300.000000pt" height="300.000000pt" viewBox="0 0 300.000000 300.000000"
 preserveAspectRatio="xMidYMid meet">
<metadata>
Created by potrace 1.10, written by Peter Selinger 2001-2011
</metadata>
<g transform="translate(0.000000,300.000000) scale(0.100000,-0.100000)"
fill="#000000" stroke="none">
<path d="M482 2990 c-65 -28 -323 -191 -360 -228 -151 -149 -160 -505 -23
-852 129 -325 360 -648 735 -1028 556 -565 1053 -855 1501 -879 117 -6 250 15
332 52 78 35 128 93 233 270 90 150 95 162 95 215 0 94 -11 104 -383 351 -296
198 -337 222 -380 226 -81 7 -121 -22 -238 -172 -103 -132 -133 -159 -169
-149 -34 10 -177 94 -250 148 -196 143 -488 435 -631 631 -54 73 -138 216
-148 250 -10 36 17 66 149 169 152 118 180 158 171 240 -5 43 -31 87 -226 380
-152 229 -231 338 -255 355 -39 27 -115 37 -153 21z m90 -101 c30 -13 440
-629 446 -669 5 -36 -16 -58 -176 -183 -123 -96 -142 -122 -142 -203 0 -91
143 -313 347 -537 290 -318 636 -583 778 -595 84 -7 113 12 212 140 125 160
147 181 183 176 40 -6 656 -416 669 -446 6 -13 11 -31 11 -40 -1 -29 -185
-325 -222 -354 -51 -42 -138 -68 -247 -75 -420 -25 -911 239 -1475 795 -476
470 -751 890 -837 1277 -21 96 -18 327 5 399 32 97 64 129 236 232 85 51 163
93 172 94 9 0 27 -5 40 -11z"/>
<path d="M1668 2583 c-44 -49 -10 -78 99 -87 412 -33 750 -371 780 -781 6 -82
21 -115 53 -115 26 0 50 33 50 71 0 19 -7 75 -15 125 -71 441 -422 763 -870
800 -71 6 -82 4 -97 -13z"/>
<path d="M1667 2283 c-9 -11 -17 -26 -17 -35 0 -24 34 -48 66 -48 62 0 151
-23 221 -56 171 -81 291 -253 309 -441 9 -94 46 -130 87 -85 21 23 21 61 1
160 -25 125 -84 233 -179 327 -116 116 -240 175 -396 190 -66 6 -76 5 -92 -12z"/>
<path d="M1668 1983 c-10 -11 -18 -26 -18 -35 0 -22 33 -48 62 -48 109 0 221
-105 235 -223 9 -71 51 -98 88 -57 41 45 -17 216 -98 286 -55 48 -129 82 -197
90 -47 5 -58 3 -72 -13z"/>
</g>
</svg>
