<?xml version="1.0" standalone="no"?>
<!DOCTYPE svg PUBLIC "-//W3C//DTD SVG 20010904//EN"
 "http://www.w3.org/TR/2001/REC-SVG-20010904/DTD/svg10.dtd">
<svg version="1.0" xmlns="http://www.w3.org/2000/svg"
 width="300.000000pt" height="300.000000pt" viewBox="0 0 300.000000 300.000000"
 preserveAspectRatio="xMidYMid meet">
<metadata>
Created by potrace 1.10, written by Peter Selinger 2001-2011
</metadata>
<g transform="translate(0.000000,300.000000) scale(0.100000,-0.100000)"
fill="#000000" stroke="none">
<path d="M2880 2869 c-14 -3 -477 -183 -1030 -399 -553 -216 -1182 -461 -1398
-545 -216 -84 -404 -160 -417 -169 -31 -20 -43 -80 -24 -115 19 -35 767 -411
817 -411 25 0 106 42 320 166 158 92 302 175 320 186 17 11 32 18 32 15 0 -2
-87 -81 -194 -176 -107 -94 -197 -179 -200 -187 -3 -9 -6 -217 -6 -462 0 -340
3 -453 13 -472 17 -34 61 -53 102 -46 30 6 53 32 203 231 l169 223 394 -224
c217 -123 405 -227 418 -231 33 -8 70 7 92 37 12 17 93 402 263 1255 136 677
246 1238 246 1247 0 24 -46 75 -73 80 -12 2 -34 1 -47 -3z m-103 -261 c-4 -13
-99 -486 -212 -1053 -113 -566 -209 -1037 -213 -1046 -6 -14 -73 21 -382 197
-388 221 -419 235 -463 202 -9 -7 -62 -73 -117 -147 l-100 -134 0 264 0 265
113 100 c61 55 254 225 427 379 173 153 367 325 432 382 64 57 119 111 122
119 21 56 -27 128 -85 128 -34 0 -65 -18 -1240 -702 -124 -73 -231 -132 -238
-132 -14 0 -495 240 -490 245 2 1 463 182 1024 401 561 218 1108 432 1215 474
107 43 199 78 204 79 4 0 6 -9 3 -21z"/>
</g>
</svg>
